<svg xmlns="http://www.w3.org/2000/svg" width="1100" height="680" viewBox="0 0 1100 680">
  <defs>
    <linearGradient id="bg" x1="0" y1="0" x2="1" y2="1">
      <stop offset="0%" stop-color="#f7f7f2"/>
      <stop offset="55%" stop-color="#f0f6ff"/>
      <stop offset="100%" stop-color="#ffe8d1"/>
    </linearGradient>
  </defs>
  <rect width="1100" height="680" fill="url(#bg)"/>
  <rect x="320" y="40" width="460" height="600" rx="22" fill="#ffffff" stroke="#d3dde1"/>
  <text x="350" y="90" font-family="Arial, sans-serif" font-size="14" fill="#0f766e">LEAD COLLECTOR</text>
  <text x="350" y="128" font-family="Arial, sans-serif" font-size="34" fill="#1e2930" font-weight="700">Lead Vault</text>
  <text x="350" y="155" font-family="Arial, sans-serif" font-size="14" fill="#4c6169">Save and revisit high-value pages.</text>
  <rect x="350" y="182" width="400" height="40" rx="10" fill="#ffffff" stroke="#d3dde1"/>
  <text x="365" y="207" font-family="Arial, sans-serif" font-size="13" fill="#6b7280">Paste a URL or domain</text>
  <rect x="350" y="230" width="400" height="40" rx="10" fill="#ffffff" stroke="#d3dde1"/>
  <text x="365" y="255" font-family="Arial, sans-serif" font-size="13" fill="#6b7280">Tags (comma separated)</text>
  <rect x="350" y="280" width="194" height="38" rx="10" fill="#0f766e"/>
  <text x="405" y="304" font-family="Arial, sans-serif" font-size="13" fill="#ffffff" text-anchor="middle">Save URL</text>
  <rect x="556" y="280" width="194" height="38" rx="10" fill="#d97706"/>
  <text x="653" y="304" font-family="Arial, sans-serif" font-size="13" fill="#ffffff" text-anchor="middle">Save Current Tab</text>
  <rect x="350" y="340" width="194" height="36" rx="10" fill="#edf4ff" stroke="#b5cff2"/>
  <text x="447" y="363" font-family="Arial, sans-serif" font-size="13" fill="#0b3c77" text-anchor="middle">Export JSON</text>
  <rect x="556" y="340" width="194" height="36" rx="10" fill="#edf4ff" stroke="#b5cff2"/>
  <text x="653" y="363" font-family="Arial, sans-serif" font-size="13" fill="#0b3c77" text-anchor="middle">Export CSV</text>
  <rect x="350" y="395" width="400" height="210" rx="12" fill="#f8fbff" stroke="#d3dde1"/>
  <text x="365" y="425" font-family="Arial, sans-serif" font-size="15" fill="#1e2930" font-weight="700">Saved Leads</text>
  <rect x="365" y="440" width="370" height="56" rx="10" fill="#ffffff" stroke="#d3dde1"/>
  <text x="380" y="463" font-family="Arial, sans-serif" font-size="13" fill="#1d4ed8">https://openai.com/research</text>
  <rect x="380" y="470" width="48" height="17" rx="8" fill="#dcfce7" stroke="#bbf7d0"/>
  <text x="404" y="482" font-family="Arial, sans-serif" font-size="10" fill="#14532d" text-anchor="middle">ai</text>
  <rect x="433" y="470" width="64" height="17" rx="8" fill="#dcfce7" stroke="#bbf7d0"/>
  <text x="465" y="482" font-family="Arial, sans-serif" font-size="10" fill="#14532d" text-anchor="middle">research</text>
  <text x="508" y="482" font-family="Arial, sans-serif" font-size="10" fill="#6b7280">Feb 18, 2026</text>
</svg>
